<?xml version="1.0" encoding="UTF-8"?>
<svg id="Capa_1" data-name="Capa 1" xmlns="http://www.w3.org/2000/svg" viewBox="0 0 32.88 37.55">
  <defs>
    <style>
      .cls-1 {
        fill: #fff;
      }
    </style>
  </defs>
  <path d="M.08,37.49V0h32.8v28.01c-.48,4.97-4.61,9.15-9.64,9.42l-.12.07H.08ZM16.64,6.09H4.22v10.15c1.17-1.47,2.27-2.92,3.8-4.05.54-.4,1.15-.68,1.66-1.11h-3.05v-2.34h10v-2.66ZM16.64,11.17c-5.35.03-10.19,3.74-11.61,8.89-.3,1.1-.4,2.17-.49,3.3h2.66c-.08-4.44,3.19-8.41,7.5-9.34.65-.14,1.29-.19,1.95-.27v-2.58ZM29.44,11.17h-11.79v2.58h7.5l-7.97,7.93v2.54h12.26v-2.58h-7.89l7.89-7.85v-2.62ZM7.04,27.02l1.08-.59c-.86-2.29-4.97-1.64-4.22,1.03.4,1.42,2.62,1.21,3.04,1.88.78,1.24-2.23,1.33-2.26.03-.04-.04-.83.43-.93.51-.26.2-.11.29.01.53,1.04,1.96,5.17,1.39,4.46-1.34-.34-1.32-2.91-1.29-3.13-2.02-.31-1.04,1.79-1.03,1.94-.03ZM24.06,25.7l-1.16.32v.93s-.79,0-.79,0v1.09h.78v2.23c0,.1.21.61.29.72.35.47,1.36.59,1.88.4v-1c-.31,0-.85.05-.97-.31-.06-.18-.07-1.87,0-1.96l.98-.07v-1.09h-1.02v-1.25ZM10.08,31.01c1.53,1.34,3.57.08,3.6-1.83s-2.09-3.13-3.6-1.84v-.39h-1.25v6.25h1.25v-2.19ZM16.15,26.81c-3.12.33-2.59,5.15.6,4.74,2.99-.39,2.53-5.07-.6-4.74ZM26.55,29.92l-1.09.59c.77,1.6,3.97,1.45,3.66-.7-.15-1.01-1.35-.96-2-1.28s-.04-.85.58-.58c.19.08.29.37.51.32.05-.01.83-.45.84-.5-.79-1.56-3.76-1.19-3.34.84.2.97,1.47.86,2.04,1.24.9.59-1.15,1-1.2.07ZM21.71,26.87c-.47-.05-1.09.23-1.25.7-.18-.07-.03-.47-.08-.62h-1.17v4.45h1.17v-2.46s.19-.34.23-.39c.27-.34.68-.39,1.09-.43v-1.25Z"/>
  <path class="cls-1" d="M10.92,27.98c-1.2.22-1.19,2.49.36,2.45,1.73-.04,1.62-2.82-.36-2.45Z"/>
  <path class="cls-1" d="M16.15,27.98c-1.28.23-1.2,2.21-.01,2.4,1.96.31,1.91-2.74.01-2.4Z"/>
  <path d="M10.92,27.98c1.98-.36,2.09,2.41.36,2.45-1.55.03-1.56-2.23-.36-2.45Z"/>
  <path d="M16.15,27.98c1.9-.34,1.94,2.71-.01,2.4-1.19-.19-1.26-2.17.01-2.4Z"/>
</svg>